<svg xmlns="http://www.w3.org/2000/svg" viewBox="0 0 360 360" role="img" aria-labelledby="title desc">
  <title id="title">20 liter water can</title>
  <desc id="desc">Clear blue 20 liter water can.</desc>
  <defs>
    <linearGradient id="canGlass" x1="102" x2="259" y1="58" y2="313" gradientUnits="userSpaceOnUse">
      <stop offset="0" stop-color="#e7f8ff"/>
      <stop offset=".48" stop-color="#bfeeff"/>
      <stop offset="1" stop-color="#75c7ee"/>
    </linearGradient>
    <linearGradient id="canWater" x1="103" x2="257" y1="166" y2="302" gradientUnits="userSpaceOnUse">
      <stop offset="0" stop-color="#ffffff" stop-opacity=".72"/>
      <stop offset="1" stop-color="#8ed7f3" stop-opacity=".72"/>
    </linearGradient>
    <filter id="shadow" x="-30%" y="-20%" width="160%" height="160%">
      <feDropShadow dx="0" dy="12" stdDeviation="12" flood-color="#000" flood-opacity=".14"/>
    </filter>
  </defs>
  <rect width="360" height="360" rx="28" fill="#f8fbff"/>
  <g filter="url(#shadow)">
    <path fill="#1475c7" d="M152 37h57c7 0 12 5 12 12v30h-81V49c0-7 5-12 12-12Z"/>
    <path fill="#dff5ff" stroke="#68b8e3" stroke-width="5" d="M148 74h65l9 39c25 12 44 39 44 69v97c0 25-20 45-45 45h-82c-25 0-45-20-45-45v-97c0-30 19-57 44-69l10-39Z"/>
    <path fill="url(#canGlass)" d="M106 179c0-26 21-47 47-47h54c26 0 47 21 47 47v97c0 20-16 36-36 36h-76c-20 0-36-16-36-36v-97Z" opacity=".74"/>
    <path fill="url(#canWater)" d="M107 176h146v102c0 18-15 33-33 33h-80c-18 0-33-15-33-33V176Z"/>
    <path fill="#ecfbff" d="M112 155h136v22H112z" opacity=".88"/>
    <path fill="#e7faff" d="M108 234h144v22H108z" opacity=".78"/>
    <path fill="none" stroke="#5cb6de" stroke-width="8" d="M104 155h152M104 233h152M111 288h138" opacity=".58"/>
    <path fill="none" stroke="#2d8ac5" stroke-width="4" d="M103 178h154M104 256h152" opacity=".45"/>
    <path fill="#fff" d="M130 101c20-12 73-11 97 1 7 4 8 14 1 18-26 14-76 14-101 0-7-4-5-15 3-19Z" opacity=".6"/>
    <path fill="#fff" d="M130 147c18-10 76-10 99 0 4 2 4 8-1 10-29 9-68 9-98 0-5-2-5-8 0-10Z" opacity=".5"/>
    <path fill="#0d5ea8" d="M145 47h70v16h-70z" opacity=".28"/>
  </g>
</svg>
