<svg xmlns="http://www.w3.org/2000/svg" viewBox="0 0 360 360" role="img" aria-labelledby="title desc">
  <title id="title">15 liter water jar</title>
  <desc id="desc">Orange insulated water jar with a front tap.</desc>
  <defs>
    <linearGradient id="jarBody" x1="92" x2="270" y1="82" y2="314" gradientUnits="userSpaceOnUse">
      <stop offset="0" stop-color="#ff9d31"/>
      <stop offset=".55" stop-color="#f4791f"/>
      <stop offset="1" stop-color="#db5f16"/>
    </linearGradient>
    <linearGradient id="jarBand" x1="94" x2="268" y1="128" y2="232" gradientUnits="userSpaceOnUse">
      <stop offset="0" stop-color="#fee3bd"/>
      <stop offset="1" stop-color="#f6c68c"/>
    </linearGradient>
    <filter id="shadow" x="-30%" y="-20%" width="160%" height="160%">
      <feDropShadow dx="0" dy="12" stdDeviation="12" flood-color="#000" flood-opacity=".18"/>
    </filter>
  </defs>
  <rect width="360" height="360" rx="28" fill="#f8fbff"/>
  <g filter="url(#shadow)">
    <path fill="url(#jarBody)" d="M104 85c0-17 14-31 31-31h90c17 0 31 14 31 31v204c0 17-14 31-31 31h-90c-17 0-31-14-31-31V85Z"/>
    <path fill="#ed6e1d" d="M101 73c6-18 22-30 42-30h74c20 0 36 12 42 30 3 8-3 17-12 17H113c-9 0-15-9-12-17Z"/>
    <path fill="#ff9f37" d="M118 57h124v24H118z"/>
    <ellipse cx="180" cy="58" rx="60" ry="17" fill="#f47c22"/>
    <ellipse cx="180" cy="56" rx="46" ry="10" fill="#f5a256"/>
    <rect x="100" y="121" width="160" height="111" rx="12" fill="url(#jarBand)"/>
    <path fill="#fff3df" d="M112 136h136v20H112z" opacity=".45"/>
    <g opacity=".9">
      <circle cx="144" cy="181" r="19" fill="none" stroke="#00a6d6" stroke-width="5"/>
      <circle cx="177" cy="183" r="25" fill="none" stroke="#e74135" stroke-width="6"/>
      <circle cx="214" cy="180" r="17" fill="none" stroke="#39ad6b" stroke-width="5"/>
      <circle cx="157" cy="203" r="8" fill="#8c4bc6"/>
      <circle cx="202" cy="205" r="9" fill="#00a6d6"/>
      <path d="M122 188c31-32 79-34 115 0" fill="none" stroke="#533c7d" stroke-width="4" stroke-linecap="round"/>
    </g>
    <rect x="143" y="264" width="74" height="36" rx="15" fill="#d95512" opacity=".75"/>
    <circle cx="180" cy="277" r="19" fill="#f3f7fb" stroke="#c7d2df" stroke-width="4"/>
    <path fill="#7e8da0" d="M174 274h12v25h-12z"/>
    <circle cx="180" cy="274" r="7" fill="#b9c7d8"/>
    <path fill="#ca4f11" d="M115 304h25v21h-25zm105 0h25v21h-25z"/>
  </g>
</svg>
